<mxfile host="Electron" modified="2023-10-28T21:52:24.491Z" agent="Mozilla/5.0 (Macintosh; Intel Mac OS X 10_15_7) AppleWebKit/537.36 (KHTML, like Gecko) draw.io/22.0.3 Chrome/114.0.5735.289 Electron/25.8.4 Safari/537.36" etag="BDCHEgLKLkZ4Z0TyF1TH" version="22.0.3" type="device">
  <diagram name="Page-1" id="pGmCVu3MiOa4-AyxInYO">
    <mxGraphModel dx="2025" dy="496" grid="1" gridSize="10" guides="1" tooltips="1" connect="1" arrows="1" fold="1" page="1" pageScale="1" pageWidth="850" pageHeight="1100" math="0" shadow="0">
      <root>
        <mxCell id="0" />
        <mxCell id="1" parent="0" />
        <mxCell id="zdWXTWw2KYx3G_dApKjT-1" value="&lt;font color=&quot;#ffffff&quot;&gt;Item view&lt;/font&gt;" style="strokeWidth=1;shadow=0;dashed=0;align=center;html=1;shape=mxgraph.mockup.containers.window;align=left;verticalAlign=top;spacingLeft=8;strokeColor2=#008cff;strokeColor3=#c4c4c4;fontColor=#666666;mainText=;fontSize=17;labelBackgroundColor=none;whiteSpace=wrap;" vertex="1" parent="1">
          <mxGeometry x="365" y="1210" width="1020" height="720" as="geometry" />
        </mxCell>
        <mxCell id="zdWXTWw2KYx3G_dApKjT-2" value="Category" style="strokeWidth=1;shadow=0;dashed=0;align=center;html=1;shape=mxgraph.mockup.forms.comboBox;strokeColor=#999999;fillColor=#ddeeff;align=left;fillColor2=#aaddff;mainText=;fontColor=#666666;fontSize=17;spacingLeft=3;" vertex="1" parent="1">
          <mxGeometry x="1155" y="1370" width="150" height="30" as="geometry" />
        </mxCell>
        <mxCell id="zdWXTWw2KYx3G_dApKjT-3" value="State" style="strokeWidth=1;shadow=0;dashed=0;align=center;html=1;shape=mxgraph.mockup.forms.comboBox;strokeColor=#999999;fillColor=#ddeeff;align=left;fillColor2=#aaddff;mainText=;fontColor=#666666;fontSize=17;spacingLeft=3;" vertex="1" parent="1">
          <mxGeometry x="905" y="1487" width="150" height="30" as="geometry" />
        </mxCell>
        <mxCell id="zdWXTWw2KYx3G_dApKjT-4" value="" style="verticalLabelPosition=bottom;shadow=0;dashed=0;align=center;html=1;verticalAlign=top;strokeWidth=1;shape=mxgraph.mockup.graphics.simpleIcon;strokeColor=#999999;" vertex="1" parent="1">
          <mxGeometry x="445" y="1330" width="350" height="280" as="geometry" />
        </mxCell>
        <mxCell id="zdWXTWw2KYx3G_dApKjT-5" value="Last Worn" style="fillColor=none;strokeColor=none;html=1;fontSize=11;fontStyle=0;align=left;fontColor=#596780;fontStyle=1;fontSize=11" vertex="1" parent="1">
          <mxGeometry x="1155" y="1460" width="150" height="20" as="geometry" />
        </mxCell>
        <mxCell id="zdWXTWw2KYx3G_dApKjT-6" value="Today" style="rounded=1;arcSize=9;fillColor=#ffffff;align=left;spacingLeft=5;strokeColor=#0057D8;html=1;strokeWidth=2;fontColor=#253858;fontSize=12" vertex="1" parent="1">
          <mxGeometry x="1155" y="1484" width="150" height="33" as="geometry" />
        </mxCell>
        <mxCell id="zdWXTWw2KYx3G_dApKjT-7" value="" style="shape=mxgraph.gmdl.calendar;fillColor=#253858;strokeColor=none" vertex="1" parent="zdWXTWw2KYx3G_dApKjT-6">
          <mxGeometry x="1" y="0.5" width="18" height="18" relative="1" as="geometry">
            <mxPoint x="-29" y="-9" as="offset" />
          </mxGeometry>
        </mxCell>
        <mxCell id="zdWXTWw2KYx3G_dApKjT-8" value="" style="verticalLabelPosition=bottom;shadow=0;dashed=0;align=center;html=1;verticalAlign=top;strokeWidth=1;shape=mxgraph.mockup.forms.splitter;strokeColor=#999999;" vertex="1" parent="1">
          <mxGeometry x="410" y="1640" width="945" height="10" as="geometry" />
        </mxCell>
        <mxCell id="zdWXTWw2KYx3G_dApKjT-9" value="Today" style="rounded=1;arcSize=9;fillColor=#ffffff;align=left;spacingLeft=5;strokeColor=#0057D8;html=1;strokeWidth=2;fontColor=#253858;fontSize=12" vertex="1" parent="1">
          <mxGeometry x="505" y="1780" width="150" height="33" as="geometry" />
        </mxCell>
        <mxCell id="zdWXTWw2KYx3G_dApKjT-10" value="" style="shape=mxgraph.gmdl.calendar;fillColor=#253858;strokeColor=none" vertex="1" parent="zdWXTWw2KYx3G_dApKjT-9">
          <mxGeometry x="1" y="0.5" width="18" height="18" relative="1" as="geometry">
            <mxPoint x="-29" y="-9" as="offset" />
          </mxGeometry>
        </mxCell>
        <mxCell id="zdWXTWw2KYx3G_dApKjT-11" value="Purchased" style="fillColor=none;strokeColor=none;html=1;fontSize=11;fontStyle=0;align=left;fontColor=#596780;fontStyle=1;fontSize=11" vertex="1" parent="1">
          <mxGeometry x="505" y="1760" width="150" height="20" as="geometry" />
        </mxCell>
        <mxCell id="zdWXTWw2KYx3G_dApKjT-12" value="" style="html=1;shadow=0;dashed=0;shape=mxgraph.bootstrap.rrect;rSize=5;strokeColor=#CED4DA;html=1;whiteSpace=wrap;fillColor=#FFFFFF;fontColor=#7D868C;align=left;spacing=15;spacingLeft=40;fontSize=14;" vertex="1" parent="1">
          <mxGeometry x="505" y="1845" width="150" height="40" as="geometry" />
        </mxCell>
        <mxCell id="zdWXTWw2KYx3G_dApKjT-13" value="$" style="html=1;shadow=0;dashed=0;shape=mxgraph.bootstrap.leftButton;strokeColor=inherit;gradientColor=inherit;fontColor=inherit;fillColor=#E9ECEF;rSize=5;perimeter=none;whiteSpace=wrap;resizeHeight=1;fontSize=14;" vertex="1" parent="zdWXTWw2KYx3G_dApKjT-12">
          <mxGeometry width="40" height="40" relative="1" as="geometry" />
        </mxCell>
        <mxCell id="zdWXTWw2KYx3G_dApKjT-14" value="0.00" style="html=1;shadow=0;dashed=0;strokeColor=inherit;gradientColor=inherit;fontColor=inherit;fillColor=#E9ECEF;perimeter=none;whiteSpace=wrap;resizeHeight=1;fontSize=14;" vertex="1" parent="zdWXTWw2KYx3G_dApKjT-12">
          <mxGeometry width="60" height="40" relative="1" as="geometry">
            <mxPoint x="40" as="offset" />
          </mxGeometry>
        </mxCell>
        <mxCell id="zdWXTWw2KYx3G_dApKjT-15" value="" style="html=1;shadow=0;dashed=0;shape=mxgraph.bootstrap.checkbox2;labelPosition=right;verticalLabelPosition=middle;align=left;verticalAlign=middle;gradientColor=#DEDEDE;fillColor=#EDEDED;checked=0;spacing=5;checkedFill=#0085FC;checkedStroke=#ffffff;sketch=0;" vertex="1" parent="1">
          <mxGeometry x="1095" y="1710" width="10" height="10" as="geometry" />
        </mxCell>
        <mxCell id="zdWXTWw2KYx3G_dApKjT-16" value="" style="html=1;shadow=0;dashed=0;shape=mxgraph.bootstrap.checkbox2;labelPosition=right;verticalLabelPosition=middle;align=left;verticalAlign=middle;gradientColor=#DEDEDE;fillColor=#EDEDED;checked=0;spacing=5;checkedFill=#0085FC;checkedStroke=#ffffff;sketch=0;" vertex="1" parent="1">
          <mxGeometry x="1195" y="1710" width="10" height="10" as="geometry" />
        </mxCell>
        <mxCell id="zdWXTWw2KYx3G_dApKjT-17" value="" style="html=1;shadow=0;dashed=0;shape=mxgraph.bootstrap.checkbox2;labelPosition=right;verticalLabelPosition=middle;align=left;verticalAlign=middle;gradientColor=#DEDEDE;fillColor=#EDEDED;checked=0;spacing=5;checkedFill=#0085FC;checkedStroke=#ffffff;sketch=0;" vertex="1" parent="1">
          <mxGeometry x="1095" y="1750" width="10" height="10" as="geometry" />
        </mxCell>
        <mxCell id="zdWXTWw2KYx3G_dApKjT-18" value="" style="html=1;shadow=0;dashed=0;shape=mxgraph.bootstrap.checkbox2;labelPosition=right;verticalLabelPosition=middle;align=left;verticalAlign=middle;gradientColor=#DEDEDE;fillColor=#EDEDED;checked=0;spacing=5;checkedFill=#0085FC;checkedStroke=#ffffff;sketch=0;" vertex="1" parent="1">
          <mxGeometry x="1195" y="1750" width="10" height="10" as="geometry" />
        </mxCell>
        <mxCell id="zdWXTWw2KYx3G_dApKjT-19" value="Winter" style="text;html=1;strokeColor=none;fillColor=none;align=center;verticalAlign=middle;whiteSpace=wrap;rounded=0;" vertex="1" parent="1">
          <mxGeometry x="1105" y="1700" width="60" height="30" as="geometry" />
        </mxCell>
        <mxCell id="zdWXTWw2KYx3G_dApKjT-20" value="Summer" style="text;html=1;strokeColor=none;fillColor=none;align=center;verticalAlign=middle;whiteSpace=wrap;rounded=0;" vertex="1" parent="1">
          <mxGeometry x="1105" y="1740" width="60" height="30" as="geometry" />
        </mxCell>
        <mxCell id="zdWXTWw2KYx3G_dApKjT-21" value="Sprint" style="text;html=1;strokeColor=none;fillColor=none;align=center;verticalAlign=middle;whiteSpace=wrap;rounded=0;" vertex="1" parent="1">
          <mxGeometry x="1205" y="1700" width="60" height="30" as="geometry" />
        </mxCell>
        <mxCell id="zdWXTWw2KYx3G_dApKjT-22" value="Fall" style="text;html=1;strokeColor=none;fillColor=none;align=center;verticalAlign=middle;whiteSpace=wrap;rounded=0;" vertex="1" parent="1">
          <mxGeometry x="1205" y="1740" width="60" height="30" as="geometry" />
        </mxCell>
        <mxCell id="zdWXTWw2KYx3G_dApKjT-23" value="Occasion" style="html=1;shadow=0;dashed=0;shape=mxgraph.bootstrap.rrect;rSize=5;strokeColor=#CED4DA;html=1;whiteSpace=wrap;fillColor=#FFFFFF;fontColor=#7D868C;align=left;spacingLeft=0;spacing=15;fontSize=14;" vertex="1" parent="1">
          <mxGeometry x="1095" y="1781.5" width="210" height="40" as="geometry" />
        </mxCell>
        <mxCell id="zdWXTWw2KYx3G_dApKjT-24" value="Add" style="html=1;shadow=0;dashed=0;shape=mxgraph.bootstrap.rightButton;strokeColor=#6C757D;gradientColor=inherit;fontColor=inherit;fillColor=inherit;rSize=5;perimeter=none;whiteSpace=wrap;resizeHeight=1;fontSize=14;" vertex="1" parent="zdWXTWw2KYx3G_dApKjT-23">
          <mxGeometry x="1" width="70" height="40" relative="1" as="geometry">
            <mxPoint x="-70" as="offset" />
          </mxGeometry>
        </mxCell>
        <mxCell id="zdWXTWw2KYx3G_dApKjT-25" value="Additional Notes" style="fillColor=none;strokeColor=none;html=1;fontSize=11;fontStyle=0;align=left;fontColor=#596780;fontStyle=1;fontSize=11" vertex="1" parent="1">
          <mxGeometry x="1100" y="1845" width="240" height="20" as="geometry" />
        </mxCell>
        <mxCell id="zdWXTWw2KYx3G_dApKjT-26" value="Watermelon Squad" style="rounded=1;arcSize=9;fillColor=#F7F8F9;align=left;spacingLeft=5;strokeColor=#DEE1E6;html=1;strokeWidth=2;fontSize=12" vertex="1" parent="1">
          <mxGeometry x="1100" y="1870" width="260" height="40" as="geometry" />
        </mxCell>
        <mxCell id="zdWXTWw2KYx3G_dApKjT-27" value="My wardrobe" style="strokeWidth=1;shadow=0;dashed=0;align=center;html=1;shape=mxgraph.mockup.navigation.anchor;fontSize=17;fontColor=#666666;fontStyle=1;" vertex="1" parent="1">
          <mxGeometry x="425" y="1270" width="60" height="30" as="geometry" />
        </mxCell>
        <mxCell id="zdWXTWw2KYx3G_dApKjT-28" value="&gt;" style="strokeWidth=1;shadow=0;dashed=0;align=center;html=1;shape=mxgraph.mockup.navigation.anchor;fontSize=24;fontColor=#aaaaaa;fontStyle=1;" vertex="1" parent="1">
          <mxGeometry x="520" y="1270" width="20" height="30" as="geometry" />
        </mxCell>
        <mxCell id="zdWXTWw2KYx3G_dApKjT-29" value="&lt;font color=&quot;#007fff&quot;&gt;Item name&lt;/font&gt;" style="strokeWidth=1;shadow=0;dashed=0;align=center;html=1;shape=mxgraph.mockup.navigation.anchor;fontSize=17;fontColor=#666666;fontStyle=1;" vertex="1" parent="1">
          <mxGeometry x="560" y="1270" width="60" height="30" as="geometry" />
        </mxCell>
        <mxCell id="zdWXTWw2KYx3G_dApKjT-31" value="Item name&lt;font color=&quot;#ff0000&quot;&gt;*&lt;/font&gt;" style="fillColor=none;strokeColor=none;html=1;fontSize=11;fontStyle=0;align=left;fontColor=#596780;fontStyle=1;fontSize=11" vertex="1" parent="1">
          <mxGeometry x="905" y="1350" width="140" height="20" as="geometry" />
        </mxCell>
        <mxCell id="zdWXTWw2KYx3G_dApKjT-32" value="New item" style="rounded=1;arcSize=9;fillColor=#F7F8F9;align=left;spacingLeft=5;strokeColor=#DEE1E6;html=1;strokeWidth=2;fontSize=12" vertex="1" parent="1">
          <mxGeometry x="905" y="1370" width="140" height="30" as="geometry" />
        </mxCell>
        <mxCell id="zdWXTWw2KYx3G_dApKjT-33" value="Item Brand" style="fillColor=none;strokeColor=none;html=1;fontSize=11;fontStyle=0;align=left;fontColor=#596780;fontStyle=1;fontSize=11" vertex="1" parent="1">
          <mxGeometry x="505" y="1690" width="140" height="20" as="geometry" />
        </mxCell>
        <mxCell id="zdWXTWw2KYx3G_dApKjT-34" value="Nike" style="rounded=1;arcSize=9;fillColor=#F7F8F9;align=left;spacingLeft=5;strokeColor=#DEE1E6;html=1;strokeWidth=2;fontSize=12" vertex="1" parent="1">
          <mxGeometry x="505" y="1710" width="140" height="30" as="geometry" />
        </mxCell>
        <mxCell id="zdWXTWw2KYx3G_dApKjT-35" value="Item Color" style="fillColor=none;strokeColor=none;html=1;fontSize=11;fontStyle=0;align=left;fontColor=#596780;fontStyle=1;fontSize=11" vertex="1" parent="1">
          <mxGeometry x="795" y="1690" width="140" height="20" as="geometry" />
        </mxCell>
        <mxCell id="zdWXTWw2KYx3G_dApKjT-36" value="Blue" style="rounded=1;arcSize=9;fillColor=#F7F8F9;align=left;spacingLeft=5;strokeColor=#DEE1E6;html=1;strokeWidth=2;fontSize=12" vertex="1" parent="1">
          <mxGeometry x="795" y="1710" width="140" height="30" as="geometry" />
        </mxCell>
        <mxCell id="zdWXTWw2KYx3G_dApKjT-37" value="Item Size" style="fillColor=none;strokeColor=none;html=1;fontSize=11;fontStyle=0;align=left;fontColor=#596780;fontStyle=1;fontSize=11" vertex="1" parent="1">
          <mxGeometry x="795" y="1763" width="140" height="20" as="geometry" />
        </mxCell>
        <mxCell id="zdWXTWw2KYx3G_dApKjT-38" value="L" style="rounded=1;arcSize=9;fillColor=#F7F8F9;align=left;spacingLeft=5;strokeColor=#DEE1E6;html=1;strokeWidth=2;fontSize=12" vertex="1" parent="1">
          <mxGeometry x="795" y="1783" width="140" height="30" as="geometry" />
        </mxCell>
        <mxCell id="zdWXTWw2KYx3G_dApKjT-39" value="Item Material" style="fillColor=none;strokeColor=none;html=1;fontSize=11;fontStyle=0;align=left;fontColor=#596780;fontStyle=1;fontSize=11" vertex="1" parent="1">
          <mxGeometry x="795" y="1835" width="140" height="20" as="geometry" />
        </mxCell>
        <mxCell id="zdWXTWw2KYx3G_dApKjT-40" value="Cotton and Polyester" style="rounded=1;arcSize=9;fillColor=#F7F8F9;align=left;spacingLeft=5;strokeColor=#DEE1E6;html=1;strokeWidth=2;fontSize=12" vertex="1" parent="1">
          <mxGeometry x="795" y="1855" width="140" height="30" as="geometry" />
        </mxCell>
        <mxCell id="zdWXTWw2KYx3G_dApKjT-83" style="edgeStyle=orthogonalEdgeStyle;rounded=0;orthogonalLoop=1;jettySize=auto;html=1;" edge="1" parent="1" source="zdWXTWw2KYx3G_dApKjT-42" target="zdWXTWw2KYx3G_dApKjT-43">
          <mxGeometry relative="1" as="geometry">
            <Array as="points">
              <mxPoint x="1580" y="1290" />
              <mxPoint x="1580" y="2640" />
            </Array>
          </mxGeometry>
        </mxCell>
        <mxCell id="zdWXTWw2KYx3G_dApKjT-42" value="Edit" style="html=1;shadow=0;dashed=0;shape=mxgraph.bootstrap.rrect;rSize=5;strokeColor=none;strokeWidth=1;fillColor=#1CA5B8;fontColor=#FFFFFF;whiteSpace=wrap;align=center;verticalAlign=middle;spacingLeft=0;fontStyle=0;fontSize=16;spacing=5;" vertex="1" parent="1">
          <mxGeometry x="1290" y="1270" width="50" height="40" as="geometry" />
        </mxCell>
        <mxCell id="zdWXTWw2KYx3G_dApKjT-43" value="&lt;font color=&quot;#ffffff&quot;&gt;Item view&lt;/font&gt;" style="strokeWidth=1;shadow=0;dashed=0;align=center;html=1;shape=mxgraph.mockup.containers.window;align=left;verticalAlign=top;spacingLeft=8;strokeColor2=#008cff;strokeColor3=#c4c4c4;fontColor=#666666;mainText=;fontSize=17;labelBackgroundColor=none;whiteSpace=wrap;" vertex="1" parent="1">
          <mxGeometry x="355" y="2280" width="1020" height="720" as="geometry" />
        </mxCell>
        <mxCell id="zdWXTWw2KYx3G_dApKjT-44" value="Category" style="strokeWidth=1;shadow=0;dashed=0;align=center;html=1;shape=mxgraph.mockup.forms.comboBox;strokeColor=#999999;fillColor=#ddeeff;align=left;fillColor2=#aaddff;mainText=;fontColor=#666666;fontSize=17;spacingLeft=3;" vertex="1" parent="1">
          <mxGeometry x="1145" y="2440" width="150" height="30" as="geometry" />
        </mxCell>
        <mxCell id="zdWXTWw2KYx3G_dApKjT-45" value="State" style="strokeWidth=1;shadow=0;dashed=0;align=center;html=1;shape=mxgraph.mockup.forms.comboBox;strokeColor=#999999;fillColor=#ddeeff;align=left;fillColor2=#aaddff;mainText=;fontColor=#666666;fontSize=17;spacingLeft=3;" vertex="1" parent="1">
          <mxGeometry x="895" y="2557" width="150" height="30" as="geometry" />
        </mxCell>
        <mxCell id="zdWXTWw2KYx3G_dApKjT-100" style="edgeStyle=orthogonalEdgeStyle;rounded=0;orthogonalLoop=1;jettySize=auto;html=1;" edge="1" parent="1" source="zdWXTWw2KYx3G_dApKjT-46" target="zdWXTWw2KYx3G_dApKjT-89">
          <mxGeometry relative="1" as="geometry">
            <Array as="points">
              <mxPoint x="260" y="2540" />
            </Array>
          </mxGeometry>
        </mxCell>
        <mxCell id="zdWXTWw2KYx3G_dApKjT-46" value="" style="verticalLabelPosition=bottom;shadow=0;dashed=0;align=center;html=1;verticalAlign=top;strokeWidth=1;shape=mxgraph.mockup.graphics.simpleIcon;strokeColor=#999999;" vertex="1" parent="1">
          <mxGeometry x="440" y="2400" width="345" height="280" as="geometry" />
        </mxCell>
        <mxCell id="zdWXTWw2KYx3G_dApKjT-47" value="Last Worn" style="fillColor=none;strokeColor=none;html=1;fontSize=11;fontStyle=0;align=left;fontColor=#596780;fontStyle=1;fontSize=11" vertex="1" parent="1">
          <mxGeometry x="1145" y="2530" width="150" height="20" as="geometry" />
        </mxCell>
        <mxCell id="zdWXTWw2KYx3G_dApKjT-48" value="Today" style="rounded=1;arcSize=9;fillColor=#ffffff;align=left;spacingLeft=5;strokeColor=#0057D8;html=1;strokeWidth=2;fontColor=#253858;fontSize=12" vertex="1" parent="1">
          <mxGeometry x="1145" y="2554" width="150" height="33" as="geometry" />
        </mxCell>
        <mxCell id="zdWXTWw2KYx3G_dApKjT-49" value="" style="shape=mxgraph.gmdl.calendar;fillColor=#253858;strokeColor=none" vertex="1" parent="zdWXTWw2KYx3G_dApKjT-48">
          <mxGeometry x="1" y="0.5" width="18" height="18" relative="1" as="geometry">
            <mxPoint x="-29" y="-9" as="offset" />
          </mxGeometry>
        </mxCell>
        <mxCell id="zdWXTWw2KYx3G_dApKjT-50" value="" style="verticalLabelPosition=bottom;shadow=0;dashed=0;align=center;html=1;verticalAlign=top;strokeWidth=1;shape=mxgraph.mockup.forms.splitter;strokeColor=#999999;" vertex="1" parent="1">
          <mxGeometry x="400" y="2710" width="945" height="10" as="geometry" />
        </mxCell>
        <mxCell id="zdWXTWw2KYx3G_dApKjT-51" value="Today" style="rounded=1;arcSize=9;fillColor=#ffffff;align=left;spacingLeft=5;strokeColor=#0057D8;html=1;strokeWidth=2;fontColor=#253858;fontSize=12" vertex="1" parent="1">
          <mxGeometry x="495" y="2850" width="150" height="33" as="geometry" />
        </mxCell>
        <mxCell id="zdWXTWw2KYx3G_dApKjT-52" value="" style="shape=mxgraph.gmdl.calendar;fillColor=#253858;strokeColor=none" vertex="1" parent="zdWXTWw2KYx3G_dApKjT-51">
          <mxGeometry x="1" y="0.5" width="18" height="18" relative="1" as="geometry">
            <mxPoint x="-29" y="-9" as="offset" />
          </mxGeometry>
        </mxCell>
        <mxCell id="zdWXTWw2KYx3G_dApKjT-53" value="Purchased" style="fillColor=none;strokeColor=none;html=1;fontSize=11;fontStyle=0;align=left;fontColor=#596780;fontStyle=1;fontSize=11" vertex="1" parent="1">
          <mxGeometry x="495" y="2830" width="150" height="20" as="geometry" />
        </mxCell>
        <mxCell id="zdWXTWw2KYx3G_dApKjT-54" value="" style="html=1;shadow=0;dashed=0;shape=mxgraph.bootstrap.rrect;rSize=5;strokeColor=#CED4DA;html=1;whiteSpace=wrap;fillColor=#FFFFFF;fontColor=#7D868C;align=left;spacing=15;spacingLeft=40;fontSize=14;" vertex="1" parent="1">
          <mxGeometry x="495" y="2915" width="150" height="40" as="geometry" />
        </mxCell>
        <mxCell id="zdWXTWw2KYx3G_dApKjT-55" value="$" style="html=1;shadow=0;dashed=0;shape=mxgraph.bootstrap.leftButton;strokeColor=inherit;gradientColor=inherit;fontColor=inherit;fillColor=#E9ECEF;rSize=5;perimeter=none;whiteSpace=wrap;resizeHeight=1;fontSize=14;" vertex="1" parent="zdWXTWw2KYx3G_dApKjT-54">
          <mxGeometry width="40" height="40" relative="1" as="geometry" />
        </mxCell>
        <mxCell id="zdWXTWw2KYx3G_dApKjT-56" value="0.00" style="html=1;shadow=0;dashed=0;strokeColor=inherit;gradientColor=inherit;fontColor=inherit;fillColor=#E9ECEF;perimeter=none;whiteSpace=wrap;resizeHeight=1;fontSize=14;" vertex="1" parent="zdWXTWw2KYx3G_dApKjT-54">
          <mxGeometry width="60" height="40" relative="1" as="geometry">
            <mxPoint x="40" as="offset" />
          </mxGeometry>
        </mxCell>
        <mxCell id="zdWXTWw2KYx3G_dApKjT-57" value="" style="html=1;shadow=0;dashed=0;shape=mxgraph.bootstrap.checkbox2;labelPosition=right;verticalLabelPosition=middle;align=left;verticalAlign=middle;gradientColor=#DEDEDE;fillColor=#EDEDED;checked=0;spacing=5;checkedFill=#0085FC;checkedStroke=#ffffff;sketch=0;" vertex="1" parent="1">
          <mxGeometry x="1085" y="2780" width="10" height="10" as="geometry" />
        </mxCell>
        <mxCell id="zdWXTWw2KYx3G_dApKjT-58" value="" style="html=1;shadow=0;dashed=0;shape=mxgraph.bootstrap.checkbox2;labelPosition=right;verticalLabelPosition=middle;align=left;verticalAlign=middle;gradientColor=#DEDEDE;fillColor=#EDEDED;checked=0;spacing=5;checkedFill=#0085FC;checkedStroke=#ffffff;sketch=0;" vertex="1" parent="1">
          <mxGeometry x="1185" y="2780" width="10" height="10" as="geometry" />
        </mxCell>
        <mxCell id="zdWXTWw2KYx3G_dApKjT-59" value="" style="html=1;shadow=0;dashed=0;shape=mxgraph.bootstrap.checkbox2;labelPosition=right;verticalLabelPosition=middle;align=left;verticalAlign=middle;gradientColor=#DEDEDE;fillColor=#EDEDED;checked=0;spacing=5;checkedFill=#0085FC;checkedStroke=#ffffff;sketch=0;" vertex="1" parent="1">
          <mxGeometry x="1085" y="2820" width="10" height="10" as="geometry" />
        </mxCell>
        <mxCell id="zdWXTWw2KYx3G_dApKjT-60" value="" style="html=1;shadow=0;dashed=0;shape=mxgraph.bootstrap.checkbox2;labelPosition=right;verticalLabelPosition=middle;align=left;verticalAlign=middle;gradientColor=#DEDEDE;fillColor=#EDEDED;checked=0;spacing=5;checkedFill=#0085FC;checkedStroke=#ffffff;sketch=0;" vertex="1" parent="1">
          <mxGeometry x="1185" y="2820" width="10" height="10" as="geometry" />
        </mxCell>
        <mxCell id="zdWXTWw2KYx3G_dApKjT-61" value="Winter" style="text;html=1;strokeColor=none;fillColor=none;align=center;verticalAlign=middle;whiteSpace=wrap;rounded=0;" vertex="1" parent="1">
          <mxGeometry x="1095" y="2770" width="60" height="30" as="geometry" />
        </mxCell>
        <mxCell id="zdWXTWw2KYx3G_dApKjT-62" value="Summer" style="text;html=1;strokeColor=none;fillColor=none;align=center;verticalAlign=middle;whiteSpace=wrap;rounded=0;" vertex="1" parent="1">
          <mxGeometry x="1095" y="2810" width="60" height="30" as="geometry" />
        </mxCell>
        <mxCell id="zdWXTWw2KYx3G_dApKjT-63" value="Sprint" style="text;html=1;strokeColor=none;fillColor=none;align=center;verticalAlign=middle;whiteSpace=wrap;rounded=0;" vertex="1" parent="1">
          <mxGeometry x="1195" y="2770" width="60" height="30" as="geometry" />
        </mxCell>
        <mxCell id="zdWXTWw2KYx3G_dApKjT-64" value="Fall" style="text;html=1;strokeColor=none;fillColor=none;align=center;verticalAlign=middle;whiteSpace=wrap;rounded=0;" vertex="1" parent="1">
          <mxGeometry x="1195" y="2810" width="60" height="30" as="geometry" />
        </mxCell>
        <mxCell id="zdWXTWw2KYx3G_dApKjT-65" value="Occasion" style="html=1;shadow=0;dashed=0;shape=mxgraph.bootstrap.rrect;rSize=5;strokeColor=#CED4DA;html=1;whiteSpace=wrap;fillColor=#FFFFFF;fontColor=#7D868C;align=left;spacingLeft=0;spacing=15;fontSize=14;" vertex="1" parent="1">
          <mxGeometry x="1085" y="2851.5" width="210" height="40" as="geometry" />
        </mxCell>
        <mxCell id="zdWXTWw2KYx3G_dApKjT-66" value="Add" style="html=1;shadow=0;dashed=0;shape=mxgraph.bootstrap.rightButton;strokeColor=#6C757D;gradientColor=inherit;fontColor=inherit;fillColor=inherit;rSize=5;perimeter=none;whiteSpace=wrap;resizeHeight=1;fontSize=14;" vertex="1" parent="zdWXTWw2KYx3G_dApKjT-65">
          <mxGeometry x="1" width="70" height="40" relative="1" as="geometry">
            <mxPoint x="-70" as="offset" />
          </mxGeometry>
        </mxCell>
        <mxCell id="zdWXTWw2KYx3G_dApKjT-67" value="Additional Notes" style="fillColor=none;strokeColor=none;html=1;fontSize=11;fontStyle=0;align=left;fontColor=#596780;fontStyle=1;fontSize=11" vertex="1" parent="1">
          <mxGeometry x="1090" y="2915" width="240" height="20" as="geometry" />
        </mxCell>
        <mxCell id="zdWXTWw2KYx3G_dApKjT-68" value="Watermelon Squad" style="rounded=1;arcSize=9;fillColor=#F7F8F9;align=left;spacingLeft=5;strokeColor=#DEE1E6;html=1;strokeWidth=2;fontSize=12" vertex="1" parent="1">
          <mxGeometry x="1090" y="2940" width="260" height="40" as="geometry" />
        </mxCell>
        <mxCell id="zdWXTWw2KYx3G_dApKjT-69" value="My wardrobe" style="strokeWidth=1;shadow=0;dashed=0;align=center;html=1;shape=mxgraph.mockup.navigation.anchor;fontSize=17;fontColor=#666666;fontStyle=1;" vertex="1" parent="1">
          <mxGeometry x="415" y="2340" width="60" height="30" as="geometry" />
        </mxCell>
        <mxCell id="zdWXTWw2KYx3G_dApKjT-70" value="&gt;" style="strokeWidth=1;shadow=0;dashed=0;align=center;html=1;shape=mxgraph.mockup.navigation.anchor;fontSize=24;fontColor=#aaaaaa;fontStyle=1;" vertex="1" parent="1">
          <mxGeometry x="510" y="2340" width="20" height="30" as="geometry" />
        </mxCell>
        <mxCell id="zdWXTWw2KYx3G_dApKjT-71" value="&lt;font color=&quot;#007fff&quot;&gt;Item name&lt;/font&gt;" style="strokeWidth=1;shadow=0;dashed=0;align=center;html=1;shape=mxgraph.mockup.navigation.anchor;fontSize=17;fontColor=#666666;fontStyle=1;" vertex="1" parent="1">
          <mxGeometry x="550" y="2340" width="60" height="30" as="geometry" />
        </mxCell>
        <mxCell id="zdWXTWw2KYx3G_dApKjT-73" value="Item name&lt;font color=&quot;#ff0000&quot;&gt;*&lt;/font&gt;" style="fillColor=none;strokeColor=none;html=1;fontSize=11;fontStyle=0;align=left;fontColor=#596780;fontStyle=1;fontSize=11" vertex="1" parent="1">
          <mxGeometry x="895" y="2420" width="140" height="20" as="geometry" />
        </mxCell>
        <mxCell id="zdWXTWw2KYx3G_dApKjT-74" value="New item" style="rounded=1;arcSize=9;fillColor=#F7F8F9;align=left;spacingLeft=5;strokeColor=#DEE1E6;html=1;strokeWidth=2;fontSize=12" vertex="1" parent="1">
          <mxGeometry x="895" y="2440" width="140" height="30" as="geometry" />
        </mxCell>
        <mxCell id="zdWXTWw2KYx3G_dApKjT-75" value="Item Brand" style="fillColor=none;strokeColor=none;html=1;fontSize=11;fontStyle=0;align=left;fontColor=#596780;fontStyle=1;fontSize=11" vertex="1" parent="1">
          <mxGeometry x="495" y="2760" width="140" height="20" as="geometry" />
        </mxCell>
        <mxCell id="zdWXTWw2KYx3G_dApKjT-76" value="Nike" style="rounded=1;arcSize=9;fillColor=#F7F8F9;align=left;spacingLeft=5;strokeColor=#DEE1E6;html=1;strokeWidth=2;fontSize=12" vertex="1" parent="1">
          <mxGeometry x="495" y="2780" width="140" height="30" as="geometry" />
        </mxCell>
        <mxCell id="zdWXTWw2KYx3G_dApKjT-77" value="Item Color" style="fillColor=none;strokeColor=none;html=1;fontSize=11;fontStyle=0;align=left;fontColor=#596780;fontStyle=1;fontSize=11" vertex="1" parent="1">
          <mxGeometry x="785" y="2760" width="140" height="20" as="geometry" />
        </mxCell>
        <mxCell id="zdWXTWw2KYx3G_dApKjT-78" value="Blue" style="rounded=1;arcSize=9;fillColor=#F7F8F9;align=left;spacingLeft=5;strokeColor=#DEE1E6;html=1;strokeWidth=2;fontSize=12" vertex="1" parent="1">
          <mxGeometry x="785" y="2780" width="140" height="30" as="geometry" />
        </mxCell>
        <mxCell id="zdWXTWw2KYx3G_dApKjT-79" value="Item Size" style="fillColor=none;strokeColor=none;html=1;fontSize=11;fontStyle=0;align=left;fontColor=#596780;fontStyle=1;fontSize=11" vertex="1" parent="1">
          <mxGeometry x="785" y="2833" width="140" height="20" as="geometry" />
        </mxCell>
        <mxCell id="zdWXTWw2KYx3G_dApKjT-80" value="L" style="rounded=1;arcSize=9;fillColor=#F7F8F9;align=left;spacingLeft=5;strokeColor=#DEE1E6;html=1;strokeWidth=2;fontSize=12" vertex="1" parent="1">
          <mxGeometry x="785" y="2853" width="140" height="30" as="geometry" />
        </mxCell>
        <mxCell id="zdWXTWw2KYx3G_dApKjT-81" value="Item Material" style="fillColor=none;strokeColor=none;html=1;fontSize=11;fontStyle=0;align=left;fontColor=#596780;fontStyle=1;fontSize=11" vertex="1" parent="1">
          <mxGeometry x="785" y="2905" width="140" height="20" as="geometry" />
        </mxCell>
        <mxCell id="zdWXTWw2KYx3G_dApKjT-82" value="Cotton and Polyester" style="rounded=1;arcSize=9;fillColor=#F7F8F9;align=left;spacingLeft=5;strokeColor=#DEE1E6;html=1;strokeWidth=2;fontSize=12" vertex="1" parent="1">
          <mxGeometry x="785" y="2925" width="140" height="30" as="geometry" />
        </mxCell>
        <mxCell id="zdWXTWw2KYx3G_dApKjT-86" style="edgeStyle=orthogonalEdgeStyle;rounded=0;orthogonalLoop=1;jettySize=auto;html=1;entryX=0.5;entryY=0;entryDx=0;entryDy=0;" edge="1" parent="1" source="zdWXTWw2KYx3G_dApKjT-84" target="zdWXTWw2KYx3G_dApKjT-85">
          <mxGeometry relative="1" as="geometry" />
        </mxCell>
        <mxCell id="zdWXTWw2KYx3G_dApKjT-84" value="Fields locked" style="text;html=1;strokeColor=none;fillColor=none;align=center;verticalAlign=middle;whiteSpace=wrap;rounded=0;" vertex="1" parent="1">
          <mxGeometry x="190" y="1400" width="60" height="30" as="geometry" />
        </mxCell>
        <mxCell id="zdWXTWw2KYx3G_dApKjT-85" value="Fields unlocked" style="text;html=1;strokeColor=none;fillColor=none;align=center;verticalAlign=middle;whiteSpace=wrap;rounded=0;" vertex="1" parent="1">
          <mxGeometry x="180" y="2557" width="60" height="30" as="geometry" />
        </mxCell>
        <mxCell id="zdWXTWw2KYx3G_dApKjT-88" value="&lt;h1&gt;Change image&lt;/h1&gt;&lt;p&gt;Can be done via a modal that pops up when image is clicked&lt;/p&gt;" style="text;html=1;strokeColor=none;fillColor=none;spacing=5;spacingTop=-20;whiteSpace=wrap;overflow=hidden;rounded=0;" vertex="1" parent="1">
          <mxGeometry x="510" y="3040" width="190" height="120" as="geometry" />
        </mxCell>
        <mxCell id="zdWXTWw2KYx3G_dApKjT-89" value="New image" style="html=1;shadow=0;dashed=0;shape=mxgraph.bootstrap.rrect;rSize=5;html=1;strokeColor=#C8C8C8;fillColor=#ffffff;whiteSpace=wrap;verticalAlign=top;align=left;fontSize=18;spacing=15;spacingTop=-5;" vertex="1" parent="1">
          <mxGeometry x="60" y="3050" width="400" height="200" as="geometry" />
        </mxCell>
        <mxCell id="zdWXTWw2KYx3G_dApKjT-90" value="" style="shape=line;strokeColor=#dddddd;resizeWidth=1;" vertex="1" parent="zdWXTWw2KYx3G_dApKjT-89">
          <mxGeometry width="400" height="10" relative="1" as="geometry">
            <mxPoint y="50" as="offset" />
          </mxGeometry>
        </mxCell>
        <mxCell id="zdWXTWw2KYx3G_dApKjT-91" value="" style="html=1;shadow=0;dashed=0;shape=mxgraph.bootstrap.x;strokeColor=#868686;strokeWidth=2;" vertex="1" parent="zdWXTWw2KYx3G_dApKjT-89">
          <mxGeometry x="1" width="8" height="8" relative="1" as="geometry">
            <mxPoint x="-24" y="20" as="offset" />
          </mxGeometry>
        </mxCell>
        <mxCell id="zdWXTWw2KYx3G_dApKjT-93" value="" style="shape=line;strokeColor=#dddddd;resizeWidth=1;" vertex="1" parent="zdWXTWw2KYx3G_dApKjT-89">
          <mxGeometry width="400" height="10" relative="1" as="geometry">
            <mxPoint y="120" as="offset" />
          </mxGeometry>
        </mxCell>
        <mxCell id="zdWXTWw2KYx3G_dApKjT-94" value="Save" style="html=1;shadow=0;dashed=0;shape=mxgraph.bootstrap.rrect;rSize=5;fillColor=#0085FC;strokeColor=none;fontColor=#FFFFFF;fontSize=14;" vertex="1" parent="zdWXTWw2KYx3G_dApKjT-89">
          <mxGeometry x="1" y="1" width="110" height="40" relative="1" as="geometry">
            <mxPoint x="-130" y="-60" as="offset" />
          </mxGeometry>
        </mxCell>
        <mxCell id="zdWXTWw2KYx3G_dApKjT-96" value="Choose file" style="html=1;shadow=0;dashed=0;shape=mxgraph.bootstrap.rrect;rSize=5;strokeColor=#CED4DA;html=1;whiteSpace=wrap;fillColor=#FFFFFF;fontColor=#7D868C;align=left;spacingLeft=0;spacing=15;fontSize=14;" vertex="1" parent="zdWXTWw2KYx3G_dApKjT-89">
          <mxGeometry x="10" y="70" width="270" height="30" as="geometry" />
        </mxCell>
        <mxCell id="zdWXTWw2KYx3G_dApKjT-97" value="Browse" style="html=1;shadow=0;dashed=0;shape=mxgraph.bootstrap.rightButton;strokeColor=inherit;gradientColor=inherit;fontColor=inherit;fillColor=#E9ECEF;rSize=5;perimeter=none;whiteSpace=wrap;resizeHeight=1;fontSize=14;" vertex="1" parent="zdWXTWw2KYx3G_dApKjT-96">
          <mxGeometry x="1" width="70" height="30" relative="1" as="geometry">
            <mxPoint x="-70" as="offset" />
          </mxGeometry>
        </mxCell>
        <mxCell id="zdWXTWw2KYx3G_dApKjT-98" value="" style="html=1;verticalLabelPosition=bottom;align=center;labelBackgroundColor=#ffffff;verticalAlign=top;strokeWidth=2;strokeColor=#0080F0;shadow=0;dashed=0;shape=mxgraph.ios7.icons.camera;" vertex="1" parent="zdWXTWw2KYx3G_dApKjT-89">
          <mxGeometry x="335" y="76.30000000000018" width="30" height="17.4" as="geometry" />
        </mxCell>
        <mxCell id="zdWXTWw2KYx3G_dApKjT-99" value="Cancel" style="html=1;shadow=0;dashed=0;shape=mxgraph.bootstrap.rrect;rSize=5;strokeColor=none;strokeWidth=1;fillColor=#DB2843;fontColor=#FFFFFF;whiteSpace=wrap;align=center;verticalAlign=middle;spacingLeft=0;fontStyle=0;fontSize=16;spacing=5;" vertex="1" parent="zdWXTWw2KYx3G_dApKjT-89">
          <mxGeometry x="10" y="140" width="80" height="40" as="geometry" />
        </mxCell>
        <mxCell id="zdWXTWw2KYx3G_dApKjT-101" value="Save" style="html=1;shadow=0;dashed=0;shape=mxgraph.bootstrap.rrect;rSize=5;strokeColor=none;strokeWidth=1;fillColor=#33A64C;fontColor=#FFFFFF;whiteSpace=wrap;align=center;verticalAlign=middle;spacingLeft=0;fontStyle=0;fontSize=16;spacing=5;" vertex="1" parent="1">
          <mxGeometry x="1255" y="2335" width="90" height="40" as="geometry" />
        </mxCell>
        <mxCell id="zdWXTWw2KYx3G_dApKjT-102" value="Cancel" style="html=1;shadow=0;dashed=0;shape=mxgraph.bootstrap.rrect;rSize=5;strokeColor=none;strokeWidth=1;fillColor=#DB2843;fontColor=#FFFFFF;whiteSpace=wrap;align=center;verticalAlign=middle;spacingLeft=0;fontStyle=0;fontSize=16;spacing=5;" vertex="1" parent="1">
          <mxGeometry x="815" y="2330" width="80" height="40" as="geometry" />
        </mxCell>
        <mxCell id="zdWXTWw2KYx3G_dApKjT-103" value="Delete" style="html=1;shadow=0;dashed=0;shape=mxgraph.bootstrap.rrect;rSize=5;strokeColor=none;strokeWidth=1;fillColor=#DB2843;fontColor=#FFFFFF;whiteSpace=wrap;align=center;verticalAlign=middle;spacingLeft=0;fontStyle=0;fontSize=16;spacing=5;" vertex="1" parent="1">
          <mxGeometry x="1190" y="1270" width="80" height="40" as="geometry" />
        </mxCell>
      </root>
    </mxGraphModel>
  </diagram>
</mxfile>
